<svg xmlns="http://www.w3.org/2000/svg" viewBox="0 0 898.7 925.64"><defs><style>.cls-1{fill:#b76f32;}.cls-2{fill:#cd9e74;}.cls-3{fill:#cc9d73;}.cls-4{fill:#c99565;}.cls-5{fill:#fefefe;}.cls-6{fill:#f4ba64;}.cls-7{fill:#e19632;}.cls-8{fill:#fbfbfb;}.cls-9{fill:#fbfaf7;}.cls-10{fill:#faf4ec;}.cls-11{fill:#e09531;}.cls-12{fill:#f1b462;}.cls-13{fill:#faf7f4;}.cls-14{fill:#e29736;}.cls-15{fill:#f8ebdc;}.cls-16{fill:#efcfa9;}.cls-17{fill:#c79366;}.cls-18{fill:#c6833f;}.cls-19{fill:#fefbfa;}.cls-20{fill:#f2b563;}.cls-21{fill:#f1b562;}</style></defs><g id="Layer_2" data-name="Layer 2"><g id="Layer_1-2" data-name="Layer 1"><path class="cls-1" d="M896.45,479.21c-1,5.23-2,10.46-1.75,15.82a80,80,0,0,1-1.56,16.54,20.8,20.8,0,0,1-3.24,8.69,106.71,106.71,0,0,0-4.13,16.89,43.88,43.88,0,0,1-7,22l0,0c-3.26,14.41-10.63,27.08-17.08,40.13a471.54,471.54,0,0,1-26.94,42.38c-4.29,5.92-9.11,11.4-13.47,17.25-22.73,26.94-47.92,51.2-77.55,70.53-12.27,8-24.71,15.78-39.58,18.21-10.38,1.7-20.72,1.49-31.25,1-24.26-1.16-47.83-5.85-71.11-12.17a355.43,355.43,0,0,1-66.59-25.17,351.15,351.15,0,0,1-68.25-42,335,335,0,0,1-61.86-64.73c-5-6.85-10-13.68-14.59-20.83a441.6,441.6,0,0,1-31.2-52.25c-13-22.89-23.72-46.85-34-71C314,434.36,303.75,407.81,294.2,381q-17.94-50.31-32.9-101.59c-5.34-18.21-10-36.6-11.69-55.59a4.65,4.65,0,0,1,1-2.22c0-1.25-.05-2.5-.08-3.75-.91-3.35.23-6.83-.65-10.18-1.12-28.27,5.9-53.57,27-73.71,7.48-7.14,16.2-12.59,24.9-18.05.82-1.82,2.53-2.67,4.13-3.45,9.27-4.52,18.56-9,28.34-12.37,1.39-.47,2.83-1.07,4.35-.37,44.56-15,90.32-25.83,135.7-38,1.74-.46,3.41-1.18,5.12-1.78,1.5-1.76,3.64-2.2,5.73-2.76,42-11.34,83.59-24.21,125.4-36.29,27-7.79,53.83-16,81.8-19.59C697.88.63,703.52,1,709.05,0h26c5.18,1,10.52.51,15.7,1.73C770.8,6.5,787.3,17,800.67,32.65c16.59,19.39,27,42.15,35.67,65.79,9.84,26.68,16.95,54.2,24.79,81.5,5.8,21,10.78,42.18,15.65,63.4,1.05,4.55,1,9.22,1.93,13.76l.14,1.55A42.34,42.34,0,0,1,883.41,280a4.86,4.86,0,0,0,.33,2.87,61.6,61.6,0,0,0,3,16.75c3.28,6.13,3.82,12.82,3.79,19.57,0,1.62-.42,3.24.14,4.85a49.84,49.84,0,0,0,2.16,15.53c3,6.05,3.12,12.58,2.88,19.09-.07,1.76-.7,3.5,0,5.27,0,4.89-.31,9.81,1.16,14.59,1.59,5.25,1.35,10.66,1.46,16,.06,3.43-.48,6.88.39,10.28q0,23.58,0,47.16c-.82,7.39-.17,14.84-.9,22.24C897.62,476,898.31,477.92,896.45,479.21Z"/><path class="cls-2" d="M.81,663.39a.78.78,0,0,1-.81-.31V610.15c2-5.24,1.1-10.8,1.57-16.18C5.43,550.2,13.81,507.27,25,464.83c12-45.52,27.13-90,44.33-133.72.67-1.69,1.63-3.26,2.45-4.89a2.57,2.57,0,0,1,1,1.33c.62,2.45-.5,4.57-1.35,6.72-20,50.46-36.81,102-49.31,154.8A770.84,770.84,0,0,0,5.25,588.31C3.67,603.87,4,619.5,2.6,635.05c-.73,7.92,2,15.86.46,23.85C2.41,660.45,2.45,662.34.81,663.39Z"/><path class="cls-3" d="M72.16,328c-.14-.59-.29-1.19-.43-1.79,14.34-33.12,31.77-64.06,62-85.64,15.52-11.1,33-17.47,51.92-20.08,19.77-2.71,39.38-1.91,59,1a45.47,45.47,0,0,0,6,.13c0,.72,0,1.44,0,2.16-1.57,1.38-3.38,1.1-5.21.81a220.65,220.65,0,0,0-48.69-2.34c-28.06,1.78-53.1,11.44-73.88,30.93-19.36,18.15-32.8,40.35-44,64.14C77.06,321.1,76.29,325.63,72.16,328Z"/><path class="cls-3" d="M249.86,207.67c1.49,3.31.72,6.77.65,10.18C249.16,214.53,249.75,211.08,249.86,207.67Z"/><path class="cls-4" d="M535.28,710c-6.45,6.57-10.67,14.73-15.61,22.35-31.8,49-68.2,93.88-117.11,127.07-27.67,18.76-58,32.2-89.46,43.33-19.76,7-40.17,11.41-60.56,15.92-4.43-.07-8.57,1.5-12.86,2.22-6.16,3.05-12.84,2.64-19.39,2.63-2.94,0-5.87-.66-8.8.12l-11.75.3a29.67,29.67,0,0,1-20-.07c-6.38.07-12.61-1.15-18.84-2.27-7.09.73-12.73-3.11-18.46-6.21-8.27-4.48-16.5-9.16-22.63-16.62a381.44,381.44,0,0,1-40.74-40.06,9.88,9.88,0,0,1-4.2-3.38A358.46,358.46,0,0,1,39.67,804c-.89-1.57-2-3.13-1.7-5.1-6.89-14.34-14.06-28.54-19.35-43.6a323.2,323.2,0,0,1-16.77-76,127.75,127.75,0,0,1-1-15.87c.41-1.41-.24-3.08,1-4.29,2.67,3.42,2,7.67,2.27,11.45a316.11,316.11,0,0,0,12.08,67.63c8,27.33,20,52.84,35,77A332.66,332.66,0,0,0,106.57,883c12.75,12,26.24,23.07,42,31.09,5.11,2.6,5.61,2.42,7.61-2.84q18.09-47.57,36-95.21c1.45-3.85,2.29-8,5.34-11.14a5.71,5.71,0,0,0,4.49-4c4.71-12.2,8.69-24.66,13.16-37,.62-1.72,1.11-3.48-.12-5.19a5.77,5.77,0,0,1,.22-3.91c4.06-10,7.16-20.34,11.76-30.11,2.5-2.37,3.77-5.39,4.72-8.63,5.38-18.24,12.65-35.82,19.06-53.69,4.49-12.5,9.37-24.84,13.82-37.35,4.62-13,9.6-25.82,14.54-38.68,1.6-4.17,1.81-8.83,4.47-12.61,4.86-10.74,8.51-21.94,12.7-32.93,5.44-15.4,11.78-30.46,17.09-45.9,3.91-10.9,8.37-21.59,11.95-32.61a3.4,3.4,0,0,1,1.35-2c10.21,24.14,21.12,47.95,33.85,70.89-1.28,1-2.87.63-4.29,1-11.1,3.14-14.37,13.75-6.86,22.44a80.68,80.68,0,0,0,20.38,16.53c7.11,4.2,14,8.83,21.74,12A381.18,381.18,0,0,0,453,656c12.44,11.47,26.21,21.3,40.36,30.61,11.64,7.66,24,14,36.14,20.82A59.69,59.69,0,0,0,535.28,710Z"/><path class="cls-5" d="M720.14,732c-16.23,8.77-33.84,8.14-51.23,6.54-72-6.61-136.94-32-194.48-75.76-34.22-26-60.34-59.37-83.2-95.41-29.88-47.13-52.67-97.74-72.78-149.61q-28.68-74-50.22-150.41a262.48,262.48,0,0,1-10-59.38c-1.69-37.36,13-65.35,46-83.53,24.83-13.67,51.65-22,78.72-29.59,52.67-14.78,105.88-27.57,158.34-43.09,1.38-.4,2.63-.25,1.55,1.46s-3.09,1.84-4.81,2.43c-9.76,3.3-19.41,6.94-29.21,10.14-5.78,1.88-6.07,2.46-4.14,8.29,17.62,53.19,35,106.47,52.84,159.58,2,6,4.1,12,5.71,18.06a10.23,10.23,0,0,1,.36,2.46c.42,25.74,4.63,51,10.84,75.85,5.92,23.73,12,47.41,15.45,71.65,1.88,13.44,1.32,26.77-2.95,39.92-6.27,19.35-7.9,39.37-7.13,59.62a26.09,26.09,0,0,0,2.41,10.13c2.34,5,6.51,7,10.95,4,15.15-10.45,33.13-10.08,50-13.94,3.37.42,3.91,3.27,4.76,5.73,4.43,12.72,8.46,25.58,12.75,38.35,1,3.1,1.88,3.44,5.14,2.26,47.15-17.18,88.92-44.17,130.61-71.32a67.79,67.79,0,0,1,6.74-4.28c2.41-1.19,4.85-1.36,6.89.74,1.86,1.91,1.84,4.15.77,6.47-3.7,8-8.36,15.52-12.79,23.13-15.89,27.37-33.44,53.61-54.09,77.67C730.37,596,715.9,610.8,696.83,620.23c-1.64.82-3.31,1.55-5,2.21-5,1.91-5,1.94-3.28,7.26q15.57,46.88,31.2,93.74C720.64,726.2,722.28,729,720.14,732Z"/><path class="cls-6" d="M562.12,251.71q-17.94-54.08-35.87-108.16c-7.94-23.93-15.79-47.9-23.93-71.76-1.3-3.83-.4-5.22,3.18-6.4,11.82-3.9,23.55-8.07,35.29-12.2.27-.1,3.46.1.52-1.45,11-4.12,22.44-7,33.72-10.21,28.17-8.16,56.18-16.89,84.68-23.89,17.55-4.31,35.19-8.07,53.34-8.77,12.75-.74,25.53-1.14,38.06,1.82,16.35,3.87,29.73,12.82,41,25a120.28,120.28,0,0,1,23.79,38.15q4.4,10.55,8.78,21.11c1.06,7.4,4.24,14.19,6.39,21.26,8.75,28.72,16.77,57.65,25,86.52.49,1.71.79,3.49,1.9,5,4.71,14.45,6.84,29.55,10.89,44.18.71,2.55,1.28,5.14,1.91,7.71,3.86,17.77,7.89,35.53,10.57,53.51,3.56,23.94,7.07,47.9,8.49,72.12.91,15.42,2.08,30.84,1.86,46.28-.47,33.6-3.05,67-11.69,99.65a282.6,282.6,0,0,1-28,68.1c-1.54,2.71-3.69,5.09-5.26,7.82-3.89,3.26-4.68,8.84-8.89,11.87-9.53,13.36-20.82,25.26-31.52,37.64C795,669.76,783.3,682.6,771.06,695c-3,3-6.75,5.38-9.15,9l-11.86,10c-8.25,7.51-17.79,13-27.59,18.17a1.83,1.83,0,0,1-1.45,0,2.19,2.19,0,0,1-.87-.18c.11-5.32-2.41-10-4-14.8q-14.68-44.73-29.68-89.36c-1.08-3.23-1.15-4.67,2.7-6,17.67-6,31.26-18.09,43.71-31.38,30.43-32.49,54-69.82,75.36-108.62l.25-.44c1.35-2.61,3.61-5.37.54-8.05-2.81-2.45-5.26-.18-7.6,1.34-8.77,5.71-17.46,11.56-26.3,17.16-28.09,17.79-56.58,34.9-87,48.43-5.91,2.63-12,4.78-18.07,7.11-2.9,1.11-6.11,1.58-8.4,5.07-5-14.93-9.63-29.08-14.37-43.21-.83-2.49-1.16-5.22-3.09-7.26a1.32,1.32,0,0,1-.08-1.25c1-1.15.67-3.25,2.67-3.66,2.58,1.91,5.24,1.51,8,.47,7-2.61,13.87-5.61,20.76-8.53a63.36,63.36,0,0,1,23.23-5c7.21-.21,10.26-4,8.41-11a48.63,48.63,0,0,0-7.06-14.8c-10.82-16-23.16-30.72-38.33-43C651.6,407,645.22,395.84,640.08,384c-9.1-21.07-16.69-42.71-24.18-64.4-9.14-26.47-20.12-52.09-35.73-75.51-.73-1.1-1.44-2.23-2.2-3.32-3.25-4.63-3.78-4.78-8.92-2.5-4.08-.06-5.46,2.15-5.45,6C563.6,246.74,564.4,249.57,562.12,251.71Z"/><path class="cls-5" d="M228,724.9l-12.6,33.89a2.39,2.39,0,0,1-1.36.9c-3.37.32-6.59-.74-9.85-1.27-14.15-2.33-27.9.32-41.41,3.74-27.46,6.94-52.71,19.17-76.93,34,8.79-.91,17.6-.4,26.37-1.19a181.32,181.32,0,0,1,26.37,0c14.28.77,28.51,1.82,42.57,4.53,5.22,1,10.47,1.91,15.3,4.33a2.82,2.82,0,0,1,1,1.28q-11.18,29.86-22.35,59.74c-6.13,16.34-12.45,32.62-18.39,49-1.41,3.89-3,4.32-6.46,2.64-17-8.23-31.47-19.89-45-32.77-40.88-39.05-70.94-85.07-88.57-139C7.7,716.9,3.57,688.21,1.83,659.1c0-13.29-.45-26.58,0-39.89C3,586.57,7.25,554.33,13.48,522.34c12.83-65.94,33.06-129.66,58-192a23.25,23.25,0,0,0,.68-2.38c8.31-17.37,16.58-34.76,27.8-50.54s24.2-29.57,40.84-39.65c19.4-11.74,40.65-16.7,63.15-17.22,15.66-.36,31.17,1.14,46.66,3.16,15,82.18,45.05,159.53,76.08,236.56.35,2.39-.48,4.53-1.33,6.71-3.65,9.4-7.24,18.83-10.84,28.24-1.25.28-1.51-.66-1.85-1.46-1.1-1.41-1.37.22-1.66.61a258.07,258.07,0,0,0-26.24,42.9c-13.13,27.1-22.84,55.7-36.49,82.56-7,13.84-15.95,25.87-28.88,35-14.39,10.15-26,23.27-36.05,37.66a22.45,22.45,0,0,0-4,9.06c-.59,3.36.55,6,4.17,5.9,15.66-.31,28,8.77,41.57,14.37C226.43,722.41,227.91,723.06,228,724.9Z"/><path class="cls-7" d="M846.79,607.11c2-6.59,6.15-12,9.23-18.05a288.75,288.75,0,0,0,26.53-75.17A337.51,337.51,0,0,0,889,462.72c.61-13.41,2.29-26.84,1.6-40.24-1.25-24.28-2.19-48.58-5.47-72.77-3.07-22.62-6.32-45.19-10.29-67.66-1.33-7.48-4.17-14.68-4-22.42,3.77,10.77,5.6,22,7.88,33.13q4.56,22.31,7.39,44.95c1.39,11,2.73,21.94,3.83,33a581,581,0,0,1,2.74,77.46c-.79,23.61-2.93,47.12-7.62,70.38-4.63,23-10.85,45.43-22,66.21C858.63,592.88,853.53,600.61,846.79,607.11Z"/><path class="cls-8" d="M391.51,583.18c-1.13,1.19-2.26.2-3.14-.24-12.88-6.49-25.49-13.43-36.17-23.32-3.55-3.28-6.65-6.9-8.06-11.73s.3-9,3.79-12.08,7.07-6.79,12.61-4.6A529.73,529.73,0,0,0,391.51,583.18Z"/><path class="cls-7" d="M815.93,73.88c-5.17-8.44-9.47-17.36-15.21-25.49-15.61-22.06-36.24-36-63.32-39.16-8-.94-16.23-.29-24.35-.36.13-.11.25-.29.39-.3,16.24-1.15,32.44-1.42,48.26,3.31C786.9,19.42,801.37,37.83,811,61,812.79,65.22,816.1,68.9,815.93,73.88Z"/><path class="cls-9" d="M761.91,704c-.65-1.58.91-2,1.61-2.71,24.22-25.08,47.26-51.22,69.79-77.83,1.37-1.62,2.56-3.51,4.59-4.48-3.81,8.19-9.57,15.08-15,22.15A369.56,369.56,0,0,1,761.91,704Z"/><path class="cls-10" d="M858,207.74c-2.09-.47-1.72-2.43-2.12-3.78q-15.78-53.1-31.46-106.24c-.29-1-.64-1.9.28-2.73C838.29,131.84,848.44,169.7,858,207.74Z"/><path class="cls-11" d="M721,732.16l29-18.14c-3.63,6.55-10.49,9.92-15.22,15.4-1.6,1.86-3.78,3.2-5.63,4.85C723.71,739.18,723.19,739.06,721,732.16Z"/><path class="cls-5" d="M319.71,492.09c1.26,11.3,0,22.25-1.6,33.18-3.84,26.63-12.76,51.92-20.13,77.63-4.39,15.32-8.84,30.67-10.81,46.58a57.24,57.24,0,0,0,1.4,22.25,175.18,175.18,0,0,1,5.9,53.32c-.21,5.65-.78,11.29-3.51,16.44-1.86,3.52-4.52,4.48-7.71,1.92C273.52,735.6,261.83,733,250,730.89c-15.13-2.76-15.17-2.78-10.06-17q38.94-108.47,77.82-216.93C318.37,495.3,319.06,493.7,319.71,492.09Z"/><path class="cls-12" d="M228,724.9c-11.83-5.14-22.7-12.49-35.59-15.2a52,52,0,0,0-8.4-.83c-5.94-.28-7.67-2.66-6-8.44,1.55-5.38,4.78-9.86,8.15-14.17,10.37-13.27,21.87-25.44,35.75-35.14,14.38-10.06,21.89-25,29.22-40.22,9.68-20,17.42-40.94,26.42-61.28,9.25-20.88,20.17-40.76,34.52-58.63.39-.49.8-1,1.23-1.47,1.79,1.41-.13,2.56.19,3.71-1.46,8.33-5.19,15.9-8,23.78S300,532.58,297,540.27c-4,11.42-8.44,22.69-12.37,34.14-5,13.91-10,27.85-15.15,41.72-4.59,12.36-9.9,24.47-14,37s-10.29,24.16-12.92,37.11a18.31,18.31,0,0,1-2.09,5c-4.29,7.78-6,16.44-8.63,24.81C231.16,722.22,230.2,724,228,724.9Z"/><path class="cls-5" d="M305.42,876.07a370.29,370.29,0,0,0-31.82-28c-19.6-15.5-40-29.77-63.62-38.66-2.91-1.09-3.25-2.48-2.24-5.22q7.15-19.39,14-38.92c1-2.77,2.13-3.17,4.72-2.07,14.31,6.09,25.41,16.14,35.05,28,19.93,24.58,33.3,52.68,43.92,82.23A12.52,12.52,0,0,1,305.42,876.07Z"/><path class="cls-13" d="M242.56,917.78c-28.12,4.36-56,6.89-84.06,1,3.16-1.78,6.57-2.17,10.05-2.25,10.13-.25,20.23.43,30.32,1.19a275.1,275.1,0,0,0,39.26,0C239.6,917.69,241.08,917.78,242.56,917.78Z"/><path class="cls-14" d="M214.72,759a1.24,1.24,0,0,1,.71-.19c2.39.38,2.29,1.76,1.63,3.63-4.88,13.83-9.66,27.69-14.54,41.52-1,2.8-3.13,1.65-5,1.14h-.07a5.18,5.18,0,0,1,.31-3.87c5.48-13,9.86-26.34,14.91-39.46A7.4,7.4,0,0,1,214.72,759Z"/><path class="cls-15" d="M296.51,540.2c5.55-15.7,10.59-31.58,17-47l1,2q-8.52,23-17,45.89C296.6,541.42,296.15,541.22,296.51,540.2Z"/><path class="cls-16" d="M296.51,540.2l1,1c-4.05,11.17-7.74,22.49-12.89,33.24,1.69-9.25,6-17.65,8.76-26.54C294.18,545.24,295.45,542.75,296.51,540.2Z"/><path class="cls-17" d="M458.77,352.69c-33.93-.78-67.73-3-101-10.13A58.85,58.85,0,0,1,346.86,339c-5.72-2.47-6.82-7.82-2.72-12.57a30,30,0,0,1,9.15-6.82c23.75-12.26,49.42-18.5,75.31-24,20.43-4.36,41.06-6.55,61.95-4.81,14.43,1.21,28.8,3,41.95,9.83A34.37,34.37,0,0,1,542,307.8c9,9.7,7.87,21.55-3,29.18-9.64,6.79-21,9.06-32.16,11.56C491,352.07,475,353,458.77,352.69Z"/><path class="cls-17" d="M533.88,565.06c35.57-.06,71.12-.88,106.31-6.82a148.53,148.53,0,0,0,16-3.56c4.52-1.29,6.49-.08,7.78,4.56,5.18,18.56,10.74,37,16.19,55.5a45,45,0,0,0,2.2,6.08c2,4.38,1.24,6.22-3.61,7.47-12.66,3.25-25.44,2.5-38.12.38-31.57-5.27-61.09-16.88-90.11-29.87-16.7-7.47-33-15.69-49.08-24.47-2.49-1.36-5.48-2.54-4.54-6.16s4.21-3.11,7-3.11Z"/><path class="cls-17" d="M644.22,501.18c0,.27-.05.53-.06.8-8.33,3.11-17.18,3.73-25.84,5.27-8.1,1.44-15.74,3.82-22.64,8.57-7.41,5.09-13.33,2.77-15.79-6-3.06-10.95-2.09-22.13-1.16-33.21,1.23-14.62,4.63-28.79,8.72-42.89,4.54-15.63,1.24-31.28-1.53-46.88-4.81-27-13.07-53.26-18.12-80.22-3.27-17.5-5.79-35.07-5.43-52.94,2.28.22,2.16,2.28,2.7,3.7,5.85,15.4,10.5,31.2,15.74,46.81q12.39,36.9,24.51,73.88c7.31,22.46,14.95,44.81,22.28,67.26,5.42,16.6,11.37,33,16.42,49.75C644.64,497.1,645.84,499.08,644.22,501.18Z"/><path class="cls-17" d="M429.74,214.7c21.58.68,38,4.76,54.32,9.5,16.46,4.77,32.65,10.34,48.6,16.6,2.93,1.15,6.79,2,5.54,6.22-1.38,4.62-5.39,2.9-8.45,2.15a579.14,579.14,0,0,0-62.65-11.85c-18.43-2.42-36.15-1.47-53.78,5.71-33.12,13.48-65.91,27.69-98.61,42.12-.61.26-1.2.58-1.82.83-2.54,1-4.92,1.25-6.4-1.66-1.39-2.71.2-4.49,2.28-5.79q9.5-6,19.12-11.76C353.53,251.32,379.28,236,406.26,223,415.07,218.73,424,214.45,429.74,214.7Z"/><path class="cls-18" d="M644.22,501.18c-1.8-6.15-3.45-12.35-5.45-18.43-5.46-16.65-11.11-33.23-16.61-49.87-9.14-27.65-18.18-55.33-27.35-83C585,320.23,575.09,290.56,565,261c-.83-2.42-1.28-5.05-2.63-7.31-.08-.65-.17-1.3-.25-1.95,0-3.14,0-6.28.13-9.42.17-5,1.89-6.17,7-4.68,2.71,1.1,3.17,3.71,3.87,6q22.9,77.29,45.75,154.6c9.08,30.79,18.09,61.61,27.32,92.37.65,2.18,1.8,4.4.13,6.65C645.71,498.62,647,501,644.22,501.18Z"/><path class="cls-8" d="M651.38,305c-16.5-.11-24.69-11-19.92-26.89,2.55-8.51,7.93-15.25,14-21.51,22.64-23.33,50.63-37.79,80.77-48.71,19.54-7.08,39.31-13.34,59.89-16.59,6.36-1,12.77-2.08,19.3-.68,7.31,1.58,9.63,6.43,5.83,12.76-4.44,7.4-10.9,13-17.24,18.57-27.66,24.23-56.65,46.7-88.8,64.77a157.44,157.44,0,0,1-46,17.34C656.68,304.53,654,304.65,651.38,305Z"/><path class="cls-19" d="M646.35,497.28c-5.65-19.44-11.22-38.91-17-58.33q-28.56-96.72-57.24-193.4c-.79-2.69-1.91-5.29-2.87-7.94,3.55-3.93,5.62-3.83,8.8.86a294.78,294.78,0,0,1,27.21,49.74c12.2,28.58,20.81,58.48,32.54,87.24,7.39,18.11,17.73,33.28,32.84,46A139.57,139.57,0,0,1,706.38,467a28.17,28.17,0,0,1,2.51,7c1.41,7.37-2.1,11.72-9.53,11.47-12.08-.4-22.65,4.37-33.35,8.95-4.73,2-9.59,3.71-14.42,5.48C649,500.85,647.12,500.11,646.35,497.28Z"/><path class="cls-8" d="M816.48,135.8c-.28,2.82-2,3.8-4.66,4.2-14.61,2.21-29.22,4.45-43.8,6.83-23.43,3.82-46.8,7.95-70.09,12.62-15.11,3-27.34,10.89-39,20.14-17.61,14-33.61,29.77-49.17,46-.46.48-.95.94-1.39,1.44-2.07,2.28-4.42,4-7.3,1.57s-1.14-4.77.51-7c4.26-5.73,8.38-11.58,12.85-17.15,13.95-17.37,28.18-34.44,44.62-49.66,12.41-11.49,26.87-16.45,43.22-18,23.84-2.21,47.71-3.58,71.65-4.31,12.3-.37,24.61-.59,36.91-.86C813.91,131.57,816.12,132.35,816.48,135.8Z"/><path class="cls-20" d="M118,452.28c30.15.32,60.07,3,89,12,16.84,5.29,33,12.33,46.67,24,4.5,3.84,7.93,8.44,9.37,14.36,1.77,7.3-1.31,13.33-8.43,15.8-10.06,3.5-20.42,2.33-30.62,1.24-29.63-3.16-56.85-14.4-83.92-25.92-17.13-7.29-34.06-15-49.95-24.83a52.25,52.25,0,0,1-7.58-5.63q-4.87-4.38,1.08-7.21c5-2.36,10.49-3,16-3.57,2.15-.21,4.32-.25,6.48-.27C110,452.25,114,452.28,118,452.28Z"/><path class="cls-12" d="M214.72,759c-5.09,15.62-10.66,31-17.27,46.09-28.26-8.06-57.13-9.85-86.32-8.41-9.76.48-19.53.89-29.6,1.35.4-2.33,2.36-2.81,3.73-3.62,24.13-14.22,49.14-26.47,76.4-33.51C179.17,756.36,196.83,753.85,214.72,759Z"/><path class="cls-21" d="M92.34,383.52c13.93,1.08,27.52,1.89,41,3.23q31.47,3.11,62.8,7.53c15.89,2.26,29,8.73,40,20.32a382.17,382.17,0,0,1,48.17,63.6l-6.25-6.84c-2.13-2.34-4.21-4.71-6.38-7-14.46-15.4-29.13-30.56-46.07-43.36-11.78-8.92-25.71-12.09-39.57-15.57-30.12-7.57-60.58-13.63-91-20C94.17,385.23,93,385.52,92.34,383.52Z"/></g></g></svg>