<svg width="140" height="140" viewBox="0 0 140 140" fill="none" xmlns="http://www.w3.org/2000/svg">
<path fill-rule="evenodd" clip-rule="evenodd" d="M70 140C108.66 140 140 108.66 140 70C140 31.3401 108.66 0 70 0C31.3401 0 0 31.3401 0 70C0 108.66 31.3401 140 70 140Z" fill="#F0F1F3"/>
<mask id="mask0" mask-type="alpha" maskUnits="userSpaceOnUse" x="0" y="0" width="140" height="140">
<path fill-rule="evenodd" clip-rule="evenodd" d="M70 140C108.66 140 140 108.66 140 70C140 31.3401 108.66 0 70 0C31.3401 0 0 31.3401 0 70C0 108.66 31.3401 140 70 140Z" fill="white"/>
</mask>
<g mask="url(#mask0)">
<path fill-rule="evenodd" clip-rule="evenodd" d="M87.7419 62.8153C82.8543 67.7029 76.9404 70.1466 70 70.1466C63.0596 70.1466 57.1457 67.7029 52.2581 62.8153C47.3705 57.9276 44.9267 52.0137 44.9267 45.0733C44.9267 38.1329 47.3705 32.219 52.2581 27.3314C57.1457 22.4438 63.0596 20 70 20C76.9404 20 82.8543 22.4438 87.7419 27.3314C92.6295 32.219 95.0733 38.1329 95.0733 45.0733C95.0733 52.0137 92.6295 57.9276 87.7419 62.8153ZM49.6188 85.3959C57.0479 83.6364 63.8416 82.7566 70 82.7566C76.1584 82.7566 82.9521 83.6364 90.3812 85.3959C97.8104 87.1554 104.604 90.0391 110.762 94.0469C116.921 98.0548 120 102.6 120 107.683V141.293H20V107.683C20 102.6 23.0791 98.0548 29.2375 94.0469C35.3959 90.0391 42.1896 87.1554 49.6188 85.3959Z" fill="#D4D6D8"/>
</g>
</svg>
